<mxfile host="Electron" modified="2024-03-22T18:51:44.659Z" agent="Mozilla/5.0 (Windows NT 10.0; Win64; x64) AppleWebKit/537.36 (KHTML, like Gecko) draw.io/24.0.4 Chrome/120.0.6099.109 Electron/28.1.0 Safari/537.36" etag="18hZeArchLWOQLTQ3TF8" version="24.0.4" type="device" pages="2">
  <diagram name="Page-1" id="93AfGYuef2_yZVPc6nXK">
    <mxGraphModel dx="1579" dy="790" grid="1" gridSize="10" guides="1" tooltips="1" connect="1" arrows="1" fold="1" page="1" pageScale="1" pageWidth="850" pageHeight="1100" math="1" shadow="0">
      <root>
        <mxCell id="0" />
        <mxCell id="1" parent="0" />
        <mxCell id="3AjWjBE8GkJIppShjR5_-3" value="Итеративный метод Гаусса-Зейделя&lt;div&gt;\((A|B), \epsilon\)&lt;br&gt;&lt;/div&gt;" style="strokeWidth=2;html=1;shape=mxgraph.flowchart.start_1;whiteSpace=wrap;" parent="1" vertex="1">
          <mxGeometry x="129.75" y="40" width="140" height="60" as="geometry" />
        </mxCell>
        <mxCell id="3AjWjBE8GkJIppShjR5_-13" value="" style="edgeStyle=orthogonalEdgeStyle;rounded=0;orthogonalLoop=1;jettySize=auto;html=1;entryX=0.5;entryY=0;entryDx=0;entryDy=0;exitX=0.5;exitY=1;exitDx=0;exitDy=0;exitPerimeter=0;" parent="1" source="3AjWjBE8GkJIppShjR5_-3" target="e9ZiOkvPnKSSuZy2veKX-60" edge="1">
          <mxGeometry relative="1" as="geometry">
            <mxPoint x="200" y="97" as="sourcePoint" />
            <mxPoint x="200" y="105" as="targetPoint" />
          </mxGeometry>
        </mxCell>
        <mxCell id="3AjWjBE8GkJIppShjR5_-25" value="" style="edgeStyle=orthogonalEdgeStyle;rounded=0;orthogonalLoop=1;jettySize=auto;html=1;entryX=0.5;entryY=0;entryDx=0;entryDy=0;exitX=0.5;exitY=1;exitDx=0;exitDy=0;" parent="1" source="e9ZiOkvPnKSSuZy2veKX-60" target="e9ZiOkvPnKSSuZy2veKX-1" edge="1">
          <mxGeometry relative="1" as="geometry">
            <mxPoint x="200" y="245" as="sourcePoint" />
            <mxPoint x="200" y="290" as="targetPoint" />
          </mxGeometry>
        </mxCell>
        <mxCell id="3AjWjBE8GkJIppShjR5_-18" value="да" style="text;html=1;align=center;verticalAlign=middle;resizable=0;points=[];autosize=1;strokeColor=none;fillColor=none;" parent="1" vertex="1">
          <mxGeometry x="290" y="160" width="40" height="30" as="geometry" />
        </mxCell>
        <mxCell id="3AjWjBE8GkJIppShjR5_-19" value="нет" style="text;html=1;align=center;verticalAlign=middle;resizable=0;points=[];autosize=1;strokeColor=none;fillColor=none;" parent="1" vertex="1">
          <mxGeometry x="200" y="250" width="40" height="30" as="geometry" />
        </mxCell>
        <mxCell id="e9ZiOkvPnKSSuZy2veKX-3" value="" style="edgeStyle=orthogonalEdgeStyle;rounded=0;orthogonalLoop=1;jettySize=auto;html=1;" edge="1" parent="1" source="e9ZiOkvPnKSSuZy2veKX-1" target="e9ZiOkvPnKSSuZy2veKX-2">
          <mxGeometry relative="1" as="geometry" />
        </mxCell>
        <mxCell id="e9ZiOkvPnKSSuZy2veKX-26" value="" style="edgeStyle=orthogonalEdgeStyle;rounded=0;orthogonalLoop=1;jettySize=auto;html=1;" edge="1" parent="1" source="e9ZiOkvPnKSSuZy2veKX-1" target="e9ZiOkvPnKSSuZy2veKX-25">
          <mxGeometry relative="1" as="geometry" />
        </mxCell>
        <mxCell id="e9ZiOkvPnKSSuZy2veKX-1" value="$$i = \overline{0,n}$$" style="shape=hexagon;perimeter=hexagonPerimeter2;whiteSpace=wrap;html=1;fixedSize=1;" vertex="1" parent="1">
          <mxGeometry x="139.75" y="280" width="120" height="80" as="geometry" />
        </mxCell>
        <mxCell id="e9ZiOkvPnKSSuZy2veKX-5" value="" style="edgeStyle=orthogonalEdgeStyle;rounded=0;orthogonalLoop=1;jettySize=auto;html=1;" edge="1" parent="1" source="e9ZiOkvPnKSSuZy2veKX-2" target="e9ZiOkvPnKSSuZy2veKX-4">
          <mxGeometry relative="1" as="geometry" />
        </mxCell>
        <mxCell id="e9ZiOkvPnKSSuZy2veKX-41" style="edgeStyle=orthogonalEdgeStyle;rounded=0;orthogonalLoop=1;jettySize=auto;html=1;entryX=0;entryY=0.5;entryDx=0;entryDy=0;exitX=0;exitY=0.5;exitDx=0;exitDy=0;" edge="1" parent="1" source="e9ZiOkvPnKSSuZy2veKX-2" target="e9ZiOkvPnKSSuZy2veKX-1">
          <mxGeometry relative="1" as="geometry">
            <mxPoint x="100" y="380" as="targetPoint" />
            <Array as="points">
              <mxPoint x="90" y="435" />
              <mxPoint x="90" y="320" />
            </Array>
          </mxGeometry>
        </mxCell>
        <mxCell id="e9ZiOkvPnKSSuZy2veKX-2" value="$$|a_{ii}| \geq \sum_{j\neq i}|a_{ij}|$$" style="rhombus;whiteSpace=wrap;html=1;" vertex="1" parent="1">
          <mxGeometry x="102.25" y="375" width="195" height="120" as="geometry" />
        </mxCell>
        <mxCell id="e9ZiOkvPnKSSuZy2veKX-8" value="" style="edgeStyle=orthogonalEdgeStyle;rounded=0;orthogonalLoop=1;jettySize=auto;html=1;" edge="1" parent="1" source="e9ZiOkvPnKSSuZy2veKX-4" target="e9ZiOkvPnKSSuZy2veKX-7">
          <mxGeometry relative="1" as="geometry" />
        </mxCell>
        <mxCell id="e9ZiOkvPnKSSuZy2veKX-43" style="edgeStyle=orthogonalEdgeStyle;rounded=0;orthogonalLoop=1;jettySize=auto;html=1;entryX=0;entryY=0.5;entryDx=0;entryDy=0;exitX=1;exitY=0.5;exitDx=0;exitDy=0;" edge="1" parent="1" source="e9ZiOkvPnKSSuZy2veKX-4" target="e9ZiOkvPnKSSuZy2veKX-1">
          <mxGeometry relative="1" as="geometry">
            <Array as="points">
              <mxPoint x="380" y="565" />
              <mxPoint x="380" y="810" />
              <mxPoint x="50" y="810" />
              <mxPoint x="50" y="320" />
            </Array>
          </mxGeometry>
        </mxCell>
        <mxCell id="e9ZiOkvPnKSSuZy2veKX-4" value="$$j = \overline{i+1, n} $$" style="shape=hexagon;perimeter=hexagonPerimeter2;whiteSpace=wrap;html=1;fixedSize=1;" vertex="1" parent="1">
          <mxGeometry x="139.75" y="525" width="120" height="80" as="geometry" />
        </mxCell>
        <mxCell id="e9ZiOkvPnKSSuZy2veKX-10" value="" style="edgeStyle=orthogonalEdgeStyle;rounded=0;orthogonalLoop=1;jettySize=auto;html=1;exitX=1;exitY=0.5;exitDx=0;exitDy=0;entryX=0.5;entryY=0;entryDx=0;entryDy=0;" edge="1" parent="1" source="e9ZiOkvPnKSSuZy2veKX-7" target="e9ZiOkvPnKSSuZy2veKX-9">
          <mxGeometry relative="1" as="geometry">
            <mxPoint x="340" y="780" as="targetPoint" />
            <Array as="points">
              <mxPoint x="320" y="685" />
            </Array>
          </mxGeometry>
        </mxCell>
        <mxCell id="e9ZiOkvPnKSSuZy2veKX-13" value="" style="edgeStyle=orthogonalEdgeStyle;rounded=0;orthogonalLoop=1;jettySize=auto;html=1;entryX=0;entryY=0.5;entryDx=0;entryDy=0;exitX=0.5;exitY=1;exitDx=0;exitDy=0;" edge="1" parent="1" source="e9ZiOkvPnKSSuZy2veKX-9" target="e9ZiOkvPnKSSuZy2veKX-1">
          <mxGeometry relative="1" as="geometry">
            <mxPoint x="30" y="310" as="targetPoint" />
            <Array as="points">
              <mxPoint x="320" y="800" />
              <mxPoint x="70" y="800" />
              <mxPoint x="70" y="320" />
            </Array>
          </mxGeometry>
        </mxCell>
        <mxCell id="e9ZiOkvPnKSSuZy2veKX-9" value="Обмен строк&lt;br&gt;$$a_{i}, a_{j}= a_{i}, a_{j}$$" style="whiteSpace=wrap;html=1;" vertex="1" parent="1">
          <mxGeometry x="269.75" y="720" width="100.25" height="60" as="geometry" />
        </mxCell>
        <mxCell id="e9ZiOkvPnKSSuZy2veKX-14" style="edgeStyle=orthogonalEdgeStyle;rounded=0;orthogonalLoop=1;jettySize=auto;html=1;exitX=0.5;exitY=1;exitDx=0;exitDy=0;entryX=0;entryY=0.5;entryDx=0;entryDy=0;" edge="1" parent="1" source="e9ZiOkvPnKSSuZy2veKX-7" target="e9ZiOkvPnKSSuZy2veKX-4">
          <mxGeometry relative="1" as="geometry">
            <mxPoint x="110" y="830" as="sourcePoint" />
            <mxPoint x="130" y="540" as="targetPoint" />
            <Array as="points">
              <mxPoint x="200" y="770" />
              <mxPoint x="90" y="770" />
              <mxPoint x="90" y="565" />
            </Array>
          </mxGeometry>
        </mxCell>
        <mxCell id="e9ZiOkvPnKSSuZy2veKX-7" value="$$|a_{ji}| \geq \sum_{k\neq i}|a_{jk}|$$" style="rhombus;whiteSpace=wrap;html=1;" vertex="1" parent="1">
          <mxGeometry x="102.25" y="625" width="195" height="120" as="geometry" />
        </mxCell>
        <mxCell id="e9ZiOkvPnKSSuZy2veKX-23" value="да" style="text;html=1;align=center;verticalAlign=middle;resizable=0;points=[];autosize=1;strokeColor=none;fillColor=none;" vertex="1" parent="1">
          <mxGeometry x="290" y="685" width="40" height="30" as="geometry" />
        </mxCell>
        <mxCell id="e9ZiOkvPnKSSuZy2veKX-24" value="нет" style="text;html=1;align=center;verticalAlign=middle;resizable=0;points=[];autosize=1;strokeColor=none;fillColor=none;" vertex="1" parent="1">
          <mxGeometry x="160" y="745" width="40" height="30" as="geometry" />
        </mxCell>
        <mxCell id="e9ZiOkvPnKSSuZy2veKX-34" style="edgeStyle=orthogonalEdgeStyle;rounded=0;orthogonalLoop=1;jettySize=auto;html=1;entryX=0.5;entryY=0;entryDx=0;entryDy=0;" edge="1" parent="1" source="e9ZiOkvPnKSSuZy2veKX-25" target="e9ZiOkvPnKSSuZy2veKX-31">
          <mxGeometry relative="1" as="geometry" />
        </mxCell>
        <mxCell id="fftwvyNlPydw7wGexTdd-6" style="edgeStyle=orthogonalEdgeStyle;rounded=0;orthogonalLoop=1;jettySize=auto;html=1;entryX=0;entryY=0.5;entryDx=0;entryDy=0;" edge="1" parent="1" source="e9ZiOkvPnKSSuZy2veKX-25" target="fftwvyNlPydw7wGexTdd-5">
          <mxGeometry relative="1" as="geometry" />
        </mxCell>
        <mxCell id="e9ZiOkvPnKSSuZy2veKX-25" value="$$|a_{ii}| \geq \sum_{j\neq i}|a_{ij}|, i = \overline{0,n}$$" style="rhombus;whiteSpace=wrap;html=1;" vertex="1" parent="1">
          <mxGeometry x="415" y="250" width="195" height="140" as="geometry" />
        </mxCell>
        <mxCell id="e9ZiOkvPnKSSuZy2veKX-28" value="да" style="text;html=1;align=center;verticalAlign=middle;resizable=0;points=[];autosize=1;strokeColor=none;fillColor=none;" vertex="1" parent="1">
          <mxGeometry x="605" y="285" width="40" height="30" as="geometry" />
        </mxCell>
        <mxCell id="e9ZiOkvPnKSSuZy2veKX-30" value="нет" style="text;html=1;align=center;verticalAlign=middle;resizable=0;points=[];autosize=1;strokeColor=none;fillColor=none;" vertex="1" parent="1">
          <mxGeometry x="510" y="385" width="40" height="30" as="geometry" />
        </mxCell>
        <mxCell id="e9ZiOkvPnKSSuZy2veKX-39" value="" style="edgeStyle=orthogonalEdgeStyle;rounded=0;orthogonalLoop=1;jettySize=auto;html=1;" edge="1" parent="1" source="e9ZiOkvPnKSSuZy2veKX-31" target="e9ZiOkvPnKSSuZy2veKX-38">
          <mxGeometry relative="1" as="geometry" />
        </mxCell>
        <mxCell id="e9ZiOkvPnKSSuZy2veKX-55" style="edgeStyle=orthogonalEdgeStyle;rounded=0;orthogonalLoop=1;jettySize=auto;html=1;entryX=0;entryY=0.5;entryDx=0;entryDy=0;" edge="1" parent="1" source="e9ZiOkvPnKSSuZy2veKX-31" target="e9ZiOkvPnKSSuZy2veKX-56">
          <mxGeometry relative="1" as="geometry">
            <mxPoint x="690" y="480" as="targetPoint" />
          </mxGeometry>
        </mxCell>
        <mxCell id="e9ZiOkvPnKSSuZy2veKX-31" value="$$i = \overline{0,n}$$" style="shape=hexagon;perimeter=hexagonPerimeter2;whiteSpace=wrap;html=1;fixedSize=1;" vertex="1" parent="1">
          <mxGeometry x="452.5" y="420" width="120" height="80" as="geometry" />
        </mxCell>
        <mxCell id="e9ZiOkvPnKSSuZy2veKX-44" style="edgeStyle=orthogonalEdgeStyle;rounded=0;orthogonalLoop=1;jettySize=auto;html=1;entryX=0;entryY=0.5;entryDx=0;entryDy=0;exitX=0.5;exitY=1;exitDx=0;exitDy=0;" edge="1" parent="1" source="e9ZiOkvPnKSSuZy2veKX-38" target="e9ZiOkvPnKSSuZy2veKX-31">
          <mxGeometry relative="1" as="geometry">
            <mxPoint x="417" y="480" as="targetPoint" />
            <Array as="points">
              <mxPoint x="512" y="710" />
              <mxPoint x="410" y="710" />
              <mxPoint x="410" y="460" />
            </Array>
          </mxGeometry>
        </mxCell>
        <mxCell id="e9ZiOkvPnKSSuZy2veKX-47" style="edgeStyle=orthogonalEdgeStyle;rounded=0;orthogonalLoop=1;jettySize=auto;html=1;entryX=0;entryY=0.5;entryDx=0;entryDy=0;" edge="1" parent="1" source="e9ZiOkvPnKSSuZy2veKX-38" target="e9ZiOkvPnKSSuZy2veKX-48">
          <mxGeometry relative="1" as="geometry">
            <mxPoint x="670" y="620" as="targetPoint" />
          </mxGeometry>
        </mxCell>
        <mxCell id="e9ZiOkvPnKSSuZy2veKX-38" value="&lt;div&gt;&lt;br&gt;&lt;/div&gt;&lt;div&gt;$$|a_{ji}| &amp;lt; \sum_{j\neq i}|a_{ji}|, j = \overline{0,n}$$&lt;br&gt;&lt;/div&gt;" style="rhombus;whiteSpace=wrap;html=1;" vertex="1" parent="1">
          <mxGeometry x="420" y="560" width="185" height="130" as="geometry" />
        </mxCell>
        <mxCell id="e9ZiOkvPnKSSuZy2veKX-40" value="нет" style="text;html=1;align=center;verticalAlign=middle;resizable=0;points=[];autosize=1;strokeColor=none;fillColor=none;" vertex="1" parent="1">
          <mxGeometry x="190" y="489.06" width="40" height="30" as="geometry" />
        </mxCell>
        <mxCell id="e9ZiOkvPnKSSuZy2veKX-42" value="да" style="text;html=1;align=center;verticalAlign=middle;resizable=0;points=[];autosize=1;strokeColor=none;fillColor=none;" vertex="1" parent="1">
          <mxGeometry x="80" y="410" width="40" height="30" as="geometry" />
        </mxCell>
        <mxCell id="e9ZiOkvPnKSSuZy2veKX-46" value="нет" style="text;html=1;align=center;verticalAlign=middle;resizable=0;points=[];autosize=1;strokeColor=none;fillColor=none;" vertex="1" parent="1">
          <mxGeometry x="470" y="680" width="40" height="30" as="geometry" />
        </mxCell>
        <mxCell id="e9ZiOkvPnKSSuZy2veKX-51" value="" style="edgeStyle=orthogonalEdgeStyle;rounded=0;orthogonalLoop=1;jettySize=auto;html=1;" edge="1" parent="1" source="e9ZiOkvPnKSSuZy2veKX-48" target="e9ZiOkvPnKSSuZy2veKX-50">
          <mxGeometry relative="1" as="geometry" />
        </mxCell>
        <mxCell id="e9ZiOkvPnKSSuZy2veKX-48" value="$$j = \overline{i+1, n} $$" style="shape=hexagon;perimeter=hexagonPerimeter2;whiteSpace=wrap;html=1;fixedSize=1;" vertex="1" parent="1">
          <mxGeometry x="635" y="585" width="120" height="80" as="geometry" />
        </mxCell>
        <mxCell id="e9ZiOkvPnKSSuZy2veKX-49" value="да" style="text;html=1;align=center;verticalAlign=middle;resizable=0;points=[];autosize=1;strokeColor=none;fillColor=none;" vertex="1" parent="1">
          <mxGeometry x="595" y="585" width="40" height="30" as="geometry" />
        </mxCell>
        <mxCell id="e9ZiOkvPnKSSuZy2veKX-53" value="" style="edgeStyle=orthogonalEdgeStyle;rounded=0;orthogonalLoop=1;jettySize=auto;html=1;" edge="1" parent="1" source="e9ZiOkvPnKSSuZy2veKX-50" target="e9ZiOkvPnKSSuZy2veKX-52">
          <mxGeometry relative="1" as="geometry" />
        </mxCell>
        <mxCell id="e9ZiOkvPnKSSuZy2veKX-50" value="Обмен столбцов&lt;span style=&quot;background-color: initial;&quot;&gt;$$ a_{:,i}, a_{:,j} = a_{:,j}, a_{:,i} $$&lt;/span&gt;" style="whiteSpace=wrap;html=1;" vertex="1" parent="1">
          <mxGeometry x="635" y="685" width="120" height="60" as="geometry" />
        </mxCell>
        <mxCell id="e9ZiOkvPnKSSuZy2veKX-54" style="edgeStyle=orthogonalEdgeStyle;rounded=0;orthogonalLoop=1;jettySize=auto;html=1;entryX=0;entryY=0.5;entryDx=0;entryDy=0;exitX=0;exitY=0.5;exitDx=0;exitDy=0;" edge="1" parent="1" source="e9ZiOkvPnKSSuZy2veKX-52" target="e9ZiOkvPnKSSuZy2veKX-31">
          <mxGeometry relative="1" as="geometry">
            <mxPoint x="500" y="480" as="targetPoint" />
            <mxPoint x="650" y="920" as="sourcePoint" />
            <Array as="points">
              <mxPoint x="390" y="795" />
              <mxPoint x="390" y="460" />
            </Array>
          </mxGeometry>
        </mxCell>
        <mxCell id="e9ZiOkvPnKSSuZy2veKX-52" value="$$ x_{i}, x_{j} = x_{j}, x_{i}$$" style="whiteSpace=wrap;html=1;" vertex="1" parent="1">
          <mxGeometry x="635" y="765" width="120" height="60" as="geometry" />
        </mxCell>
        <mxCell id="e9ZiOkvPnKSSuZy2veKX-57" style="edgeStyle=orthogonalEdgeStyle;rounded=0;orthogonalLoop=1;jettySize=auto;html=1;entryX=0;entryY=0.5;entryDx=0;entryDy=0;entryPerimeter=0;exitX=1;exitY=0.5;exitDx=0;exitDy=0;" edge="1" parent="1" source="e9ZiOkvPnKSSuZy2veKX-56" target="e9ZiOkvPnKSSuZy2veKX-64">
          <mxGeometry relative="1" as="geometry">
            <mxPoint x="1130.15" y="482.5" as="targetPoint" />
            <mxPoint x="890.0027657945496" y="462.413043478261" as="sourcePoint" />
          </mxGeometry>
        </mxCell>
        <mxCell id="fftwvyNlPydw7wGexTdd-8" style="edgeStyle=orthogonalEdgeStyle;rounded=0;orthogonalLoop=1;jettySize=auto;html=1;exitX=0.5;exitY=1;exitDx=0;exitDy=0;entryX=0.5;entryY=0;entryDx=0;entryDy=0;" edge="1" parent="1" source="e9ZiOkvPnKSSuZy2veKX-56" target="fftwvyNlPydw7wGexTdd-7">
          <mxGeometry relative="1" as="geometry">
            <Array as="points">
              <mxPoint x="690" y="519" />
            </Array>
          </mxGeometry>
        </mxCell>
        <mxCell id="e9ZiOkvPnKSSuZy2veKX-56" value="\(|a_{ii}| &amp;lt; \sum_{j\neq i}|a_{ij}|, i = \overline{0,n}\)\(\vee a_{ii} = 0, i = \overline{0,n}\)" style="rhombus;whiteSpace=wrap;html=1;" vertex="1" parent="1">
          <mxGeometry x="590" y="400.94" width="200" height="118.12" as="geometry" />
        </mxCell>
        <mxCell id="fftwvyNlPydw7wGexTdd-4" style="edgeStyle=orthogonalEdgeStyle;rounded=0;orthogonalLoop=1;jettySize=auto;html=1;entryX=0;entryY=0.5;entryDx=0;entryDy=0;" edge="1" parent="1" source="e9ZiOkvPnKSSuZy2veKX-60" target="fftwvyNlPydw7wGexTdd-3">
          <mxGeometry relative="1" as="geometry" />
        </mxCell>
        <mxCell id="e9ZiOkvPnKSSuZy2veKX-60" value="$$|a_{ii}| \geq \sum_{j\neq i}|a_{ij}|, i = \overline{0,n}$$" style="rhombus;whiteSpace=wrap;html=1;" vertex="1" parent="1">
          <mxGeometry x="102.25" y="130" width="195" height="120" as="geometry" />
        </mxCell>
        <mxCell id="e9ZiOkvPnKSSuZy2veKX-61" value="да" style="text;html=1;align=center;verticalAlign=middle;resizable=0;points=[];autosize=1;strokeColor=none;fillColor=none;" vertex="1" parent="1">
          <mxGeometry x="780" y="430" width="40" height="30" as="geometry" />
        </mxCell>
        <mxCell id="e9ZiOkvPnKSSuZy2veKX-63" value="нет" style="text;html=1;align=center;verticalAlign=middle;resizable=0;points=[];autosize=1;strokeColor=none;fillColor=none;" vertex="1" parent="1">
          <mxGeometry x="650" y="512.5" width="40" height="30" as="geometry" />
        </mxCell>
        <mxCell id="e9ZiOkvPnKSSuZy2veKX-64" value="&lt;div&gt;Ошибка&lt;/div&gt;&lt;div&gt;Метод не применим&lt;/div&gt;" style="strokeWidth=2;html=1;shape=mxgraph.flowchart.start_1;whiteSpace=wrap;" vertex="1" parent="1">
          <mxGeometry x="820" y="430" width="129.5" height="60" as="geometry" />
        </mxCell>
        <mxCell id="fftwvyNlPydw7wGexTdd-3" value="A" style="ellipse;whiteSpace=wrap;html=1;aspect=fixed;" vertex="1" parent="1">
          <mxGeometry x="337.25" y="175" width="30" height="30" as="geometry" />
        </mxCell>
        <mxCell id="fftwvyNlPydw7wGexTdd-5" value="A" style="ellipse;whiteSpace=wrap;html=1;aspect=fixed;" vertex="1" parent="1">
          <mxGeometry x="645" y="305" width="30" height="30" as="geometry" />
        </mxCell>
        <mxCell id="fftwvyNlPydw7wGexTdd-7" value="A" style="ellipse;whiteSpace=wrap;html=1;aspect=fixed;" vertex="1" parent="1">
          <mxGeometry x="675" y="542.5" width="30" height="30" as="geometry" />
        </mxCell>
      </root>
    </mxGraphModel>
  </diagram>
  <diagram id="-zhVhlXQnifMt6FraIfC" name="Page-2">
    <mxGraphModel dx="966" dy="909" grid="1" gridSize="10" guides="1" tooltips="1" connect="1" arrows="1" fold="1" page="1" pageScale="1" pageWidth="850" pageHeight="1100" math="1" shadow="0">
      <root>
        <mxCell id="0" />
        <mxCell id="1" parent="0" />
        <mxCell id="63XGXizYEahxUSniesGo-1" value="" style="edgeStyle=orthogonalEdgeStyle;rounded=0;orthogonalLoop=1;jettySize=auto;html=1;" edge="1" parent="1" source="63XGXizYEahxUSniesGo-2" target="63XGXizYEahxUSniesGo-5">
          <mxGeometry relative="1" as="geometry" />
        </mxCell>
        <mxCell id="63XGXizYEahxUSniesGo-2" value="$$&amp;nbsp;X = 0, |X| = n$$ $$\text{converge} = \text{false} $$" style="rounded=0;whiteSpace=wrap;html=1;" vertex="1" parent="1">
          <mxGeometry x="940.15" y="162.5" width="120" height="60" as="geometry" />
        </mxCell>
        <mxCell id="63XGXizYEahxUSniesGo-3" value="" style="edgeStyle=orthogonalEdgeStyle;rounded=0;orthogonalLoop=1;jettySize=auto;html=1;" edge="1" parent="1" source="63XGXizYEahxUSniesGo-5" target="63XGXizYEahxUSniesGo-6">
          <mxGeometry relative="1" as="geometry" />
        </mxCell>
        <mxCell id="63XGXizYEahxUSniesGo-4" value="" style="edgeStyle=orthogonalEdgeStyle;rounded=0;orthogonalLoop=1;jettySize=auto;html=1;" edge="1" parent="1" source="63XGXizYEahxUSniesGo-5" target="63XGXizYEahxUSniesGo-8">
          <mxGeometry relative="1" as="geometry" />
        </mxCell>
        <mxCell id="63XGXizYEahxUSniesGo-5" value="$$\neg \text{converge} $$" style="rhombus;whiteSpace=wrap;html=1;rounded=0;" vertex="1" parent="1">
          <mxGeometry x="1094.9" y="152.5" width="80" height="80" as="geometry" />
        </mxCell>
        <mxCell id="63XGXizYEahxUSniesGo-6" value="$$&amp;nbsp;X = \left[ X_{i} \,|\, i \in \text{var_indices} \right] $$" style="whiteSpace=wrap;html=1;rounded=0;" vertex="1" parent="1">
          <mxGeometry x="1054.9" y="267.5" width="160" height="60" as="geometry" />
        </mxCell>
        <mxCell id="63XGXizYEahxUSniesGo-7" style="edgeStyle=orthogonalEdgeStyle;rounded=0;orthogonalLoop=1;jettySize=auto;html=1;entryX=0.5;entryY=0;entryDx=0;entryDy=0;" edge="1" parent="1" source="63XGXizYEahxUSniesGo-8" target="63XGXizYEahxUSniesGo-13">
          <mxGeometry relative="1" as="geometry" />
        </mxCell>
        <mxCell id="63XGXizYEahxUSniesGo-8" value="\(X&#39; = X\)" style="whiteSpace=wrap;html=1;rounded=0;" vertex="1" parent="1">
          <mxGeometry x="1240.0600000000002" y="162.5" width="120" height="60" as="geometry" />
        </mxCell>
        <mxCell id="63XGXizYEahxUSniesGo-9" value="да" style="text;html=1;align=center;verticalAlign=middle;resizable=0;points=[];autosize=1;strokeColor=none;fillColor=none;" vertex="1" parent="1">
          <mxGeometry x="1174.9" y="162.5" width="40" height="30" as="geometry" />
        </mxCell>
        <mxCell id="63XGXizYEahxUSniesGo-10" value="нет" style="text;html=1;align=center;verticalAlign=middle;resizable=0;points=[];autosize=1;strokeColor=none;fillColor=none;" vertex="1" parent="1">
          <mxGeometry x="1134.9" y="237.5" width="40" height="30" as="geometry" />
        </mxCell>
        <mxCell id="63XGXizYEahxUSniesGo-11" style="edgeStyle=orthogonalEdgeStyle;rounded=0;orthogonalLoop=1;jettySize=auto;html=1;entryX=0.5;entryY=0;entryDx=0;entryDy=0;" edge="1" parent="1" source="63XGXizYEahxUSniesGo-13" target="63XGXizYEahxUSniesGo-15">
          <mxGeometry relative="1" as="geometry">
            <mxPoint x="1280.0600000000002" y="397.5" as="targetPoint" />
          </mxGeometry>
        </mxCell>
        <mxCell id="63XGXizYEahxUSniesGo-12" style="edgeStyle=orthogonalEdgeStyle;rounded=0;orthogonalLoop=1;jettySize=auto;html=1;entryX=0;entryY=0.5;entryDx=0;entryDy=0;" edge="1" parent="1" source="63XGXizYEahxUSniesGo-13" target="63XGXizYEahxUSniesGo-21">
          <mxGeometry relative="1" as="geometry" />
        </mxCell>
        <mxCell id="63XGXizYEahxUSniesGo-13" value="$$i = \overline{0,n}$$" style="shape=hexagon;perimeter=hexagonPerimeter2;whiteSpace=wrap;html=1;fixedSize=1;" vertex="1" parent="1">
          <mxGeometry x="1240.0600000000002" y="262.5" width="120" height="80" as="geometry" />
        </mxCell>
        <mxCell id="63XGXizYEahxUSniesGo-14" style="edgeStyle=orthogonalEdgeStyle;rounded=0;orthogonalLoop=1;jettySize=auto;html=1;entryX=0.5;entryY=0;entryDx=0;entryDy=0;" edge="1" parent="1" source="63XGXizYEahxUSniesGo-15" target="63XGXizYEahxUSniesGo-17">
          <mxGeometry relative="1" as="geometry">
            <mxPoint x="1300.0600000000002" y="497.5" as="targetPoint" />
          </mxGeometry>
        </mxCell>
        <mxCell id="63XGXizYEahxUSniesGo-15" value="$$ s_{1} = \sum_{j=0}^{i} a_{ij} \cdot X&#39;_{j} $$" style="rounded=0;whiteSpace=wrap;html=1;" vertex="1" parent="1">
          <mxGeometry x="1240.0600000000002" y="387.5" width="120" height="60" as="geometry" />
        </mxCell>
        <mxCell id="63XGXizYEahxUSniesGo-16" style="edgeStyle=orthogonalEdgeStyle;rounded=0;orthogonalLoop=1;jettySize=auto;html=1;" edge="1" parent="1" source="63XGXizYEahxUSniesGo-17" target="63XGXizYEahxUSniesGo-19">
          <mxGeometry relative="1" as="geometry">
            <mxPoint x="1300.0600000000002" y="607.5" as="targetPoint" />
          </mxGeometry>
        </mxCell>
        <mxCell id="63XGXizYEahxUSniesGo-17" value="$$ s_{2} = \sum_{j=i+1}^{n} a_{ij} \cdot X{j} $$" style="rounded=0;whiteSpace=wrap;html=1;" vertex="1" parent="1">
          <mxGeometry x="1240.0600000000002" y="497.5" width="120" height="60" as="geometry" />
        </mxCell>
        <mxCell id="63XGXizYEahxUSniesGo-18" style="edgeStyle=orthogonalEdgeStyle;rounded=0;orthogonalLoop=1;jettySize=auto;html=1;entryX=0;entryY=0.5;entryDx=0;entryDy=0;" edge="1" parent="1" source="63XGXizYEahxUSniesGo-19" target="63XGXizYEahxUSniesGo-13">
          <mxGeometry relative="1" as="geometry">
            <Array as="points">
              <mxPoint x="1220.1100000000001" y="637.5" />
              <mxPoint x="1220.1100000000001" y="302.5" />
            </Array>
          </mxGeometry>
        </mxCell>
        <mxCell id="63XGXizYEahxUSniesGo-19" value="$$ X&#39;_{i} = \frac{b_{i} - s_{1} - s_{2}}{a_{ii}}$$" style="rounded=0;whiteSpace=wrap;html=1;" vertex="1" parent="1">
          <mxGeometry x="1240.0600000000002" y="607.5" width="120" height="60" as="geometry" />
        </mxCell>
        <mxCell id="63XGXizYEahxUSniesGo-20" style="edgeStyle=orthogonalEdgeStyle;rounded=0;orthogonalLoop=1;jettySize=auto;html=1;" edge="1" parent="1" source="63XGXizYEahxUSniesGo-21" target="63XGXizYEahxUSniesGo-23">
          <mxGeometry relative="1" as="geometry">
            <mxPoint x="1400.1100000000001" y="852.5" as="targetPoint" />
          </mxGeometry>
        </mxCell>
        <mxCell id="63XGXizYEahxUSniesGo-21" value="$$ \text{converge} =&amp;nbsp;\bigwedge_{i=0}^{n} |X&#39;_{i} - X_{i}| &amp;lt; \epsilon$$" style="rounded=0;whiteSpace=wrap;html=1;" vertex="1" parent="1">
          <mxGeometry x="1385.1100000000001" y="257.5" width="180" height="90" as="geometry" />
        </mxCell>
        <mxCell id="63XGXizYEahxUSniesGo-22" style="edgeStyle=orthogonalEdgeStyle;rounded=0;orthogonalLoop=1;jettySize=auto;html=1;entryX=0.5;entryY=0;entryDx=0;entryDy=0;" edge="1" parent="1" source="63XGXizYEahxUSniesGo-23" target="63XGXizYEahxUSniesGo-5">
          <mxGeometry relative="1" as="geometry">
            <Array as="points">
              <mxPoint x="1620.15" y="417.5" />
              <mxPoint x="1620.15" y="132.5" />
              <mxPoint x="1135.15" y="132.5" />
            </Array>
          </mxGeometry>
        </mxCell>
        <mxCell id="63XGXizYEahxUSniesGo-23" value="$$X = X&#39;$$" style="rounded=0;whiteSpace=wrap;html=1;" vertex="1" parent="1">
          <mxGeometry x="1415.1100000000001" y="387.5" width="120" height="60" as="geometry" />
        </mxCell>
        <mxCell id="63XGXizYEahxUSniesGo-24" value="Вернуть \(X\)" style="strokeWidth=2;html=1;shape=mxgraph.flowchart.start_1;whiteSpace=wrap;" vertex="1" parent="1">
          <mxGeometry x="1070.15" y="362.5" width="129.5" height="60" as="geometry" />
        </mxCell>
        <mxCell id="63XGXizYEahxUSniesGo-25" style="edgeStyle=orthogonalEdgeStyle;rounded=0;orthogonalLoop=1;jettySize=auto;html=1;entryX=0.5;entryY=0;entryDx=0;entryDy=0;entryPerimeter=0;" edge="1" parent="1" source="63XGXizYEahxUSniesGo-6" target="63XGXizYEahxUSniesGo-24">
          <mxGeometry relative="1" as="geometry" />
        </mxCell>
        <mxCell id="63XGXizYEahxUSniesGo-26" style="edgeStyle=orthogonalEdgeStyle;rounded=0;orthogonalLoop=1;jettySize=auto;html=1;entryX=0.5;entryY=0;entryDx=0;entryDy=0;" edge="1" parent="1" source="63XGXizYEahxUSniesGo-27" target="63XGXizYEahxUSniesGo-2">
          <mxGeometry relative="1" as="geometry" />
        </mxCell>
        <mxCell id="63XGXizYEahxUSniesGo-27" value="A" style="ellipse;whiteSpace=wrap;html=1;aspect=fixed;" vertex="1" parent="1">
          <mxGeometry x="985.15" y="90" width="30" height="30" as="geometry" />
        </mxCell>
      </root>
    </mxGraphModel>
  </diagram>
</mxfile>
